<?xml version="1.0" encoding="UTF-8"?>
<svg xmlns="http://www.w3.org/2000/svg" id="Layer_1" data-name="Layer 1" viewBox="0 0 24 24" width="512" height="512"><path d="m16.551,21h-.017c-.623-.007-1.155-.415-1.324-1.014l-3.274-13.226-3.178,11.239c-.191.597-.69.976-1.28.999-.612.033-1.119-.315-1.345-.862l-1.6-4.474c-.143-.396-.521-.663-.942-.663H1c-.553,0-1-.448-1-1s.447-1,1-1h2.591c1.264,0,2.398.799,2.825,1.989l.938,2.626,3.284-11.615c.201-.625.727-1.027,1.361-1,.618.011,1.146.418,1.315,1.012l3.259,13.166,1.062-3.956c.351-1.308,1.542-2.222,2.897-2.222h2.466c.553,0,1,.448,1,1s-.447,1-1,1h-2.466c-.452,0-.849.305-.966.74l-1.677,6.242c-.191.625-.725,1.018-1.341,1.018Z"/></svg>
